<svg xmlns="http://www.w3.org/2000/svg" viewBox="0 0 64 64" role="img" aria-label="W crest favicon">
  <defs>
    <linearGradient id="g" x1="0" x2="1">
      <stop offset="0" stop-color="#d4af37"></stop>
      <stop offset="1" stop-color="#ffdd6e"></stop>
    </linearGradient>
  </defs>

  <!-- black coin -->
  <circle cx="32" cy="32" r="30" fill="#070707"></circle>
  <circle cx="32" cy="32" r="29" fill="none" stroke="url(#g)" stroke-width="2"></circle>

  <!-- stylized "W" crest (original design, not a logo copy) -->
  <path fill="url(#g)" d="
    M10 18
    C12 17, 16 17, 18 18
    L24 44
    L30 26
    C31 23, 33 23, 34 26
    L40 44
    L46 18
    C48 17, 52 17, 54 18
    C56 19, 57 21, 56 24
    L48 50
    C47 52, 45 53, 43 52
    L34 34
    L25 52
    C23 53, 21 52, 20 50
    L8 24
    C7 21, 8 19, 10 18
    Z"></path>

  <!-- small crown notch -->
  <path fill="#070707" d="M26 16 L32 12 L38 16 L38 20 L26 20 Z" opacity="0.9"></path>
</svg>
